<?xml version="1.0" encoding="UTF-8" standalone="no"?>
<svg
   xmlns:dc="http://purl.org/dc/elements/1.1/"
   xmlns:cc="http://creativecommons.org/ns#"
   xmlns:rdf="http://www.w3.org/1999/02/22-rdf-syntax-ns#"
   xmlns:svg="http://www.w3.org/2000/svg"
   xmlns="http://www.w3.org/2000/svg"
   xmlns:sodipodi="http://sodipodi.sourceforge.net/DTD/sodipodi-0.dtd"
   xmlns:inkscape="http://www.inkscape.org/namespaces/inkscape"
   width="135mm"
   height="85mm"
   viewBox="0 0 135000 85000"
   version="1.1"
   id="svg82"
   sodipodi:docname="C_100_32.svg"
   inkscape:version="0.92.2 5c3e80d, 2017-08-06">
  <metadata
     id="metadata86">
    <rdf:RDF>
      <cc:Work
         rdf:about="">
        <dc:format>image/svg+xml</dc:format>
        <dc:type
           rdf:resource="http://purl.org/dc/dcmitype/StillImage" />
        <dc:title></dc:title>
      </cc:Work>
    </rdf:RDF>
  </metadata>
  <sodipodi:namedview
     pagecolor="#ffffff"
     bordercolor="#666666"
     borderopacity="1"
     objecttolerance="10"
     gridtolerance="10"
     guidetolerance="10"
     inkscape:pageopacity="0"
     inkscape:pageshadow="2"
     inkscape:window-width="971"
     inkscape:window-height="711"
     id="namedview84"
     showgrid="false"
     inkscape:measure-start="511.055,-1.28084"
     inkscape:measure-end="361.056,115.386"
     inkscape:zoom="1.5"
     inkscape:cx="255.11811"
     inkscape:cy="146.50924"
     inkscape:window-x="198"
     inkscape:window-y="0"
     inkscape:window-maximized="0"
     inkscape:current-layer="g80" />
  <defs
     id="defs32">
    <radialGradient
       cx="75000"
       cy="60000"
       r="2020"
       gradientUnits="userSpaceOnUse"
       id="color-1">
      <stop
         offset="1"
         stop-color="#d32f2f"
         id="stop2" />
      <stop
         offset="1"
         stop-color="#d32f2f"
         id="stop4" />
    </radialGradient>
    <radialGradient
       cx="90000"
       cy="20000"
       r="2020"
       gradientUnits="userSpaceOnUse"
       id="color-2">
      <stop
         offset="1"
         stop-color="#d32f2f"
         id="stop7" />
      <stop
         offset="1"
         stop-color="#d32f2f"
         id="stop9" />
    </radialGradient>
    <radialGradient
       cx="70000"
       cy="20000"
       r="2020"
       gradientUnits="userSpaceOnUse"
       id="color-3">
      <stop
         offset="1"
         stop-color="#d32f2f"
         id="stop12" />
      <stop
         offset="1"
         stop-color="#d32f2f"
         id="stop14" />
    </radialGradient>
    <radialGradient
       cx="50000"
       cy="20000"
       r="2020"
       gradientUnits="userSpaceOnUse"
       id="color-4">
      <stop
         offset="1"
         stop-color="#d32f2f"
         id="stop17" />
      <stop
         offset="1"
         stop-color="#d32f2f"
         id="stop19" />
    </radialGradient>
    <radialGradient
       cx="30000"
       cy="40000"
       r="2020"
       gradientUnits="userSpaceOnUse"
       id="color-5">
      <stop
         offset="1"
         stop-color="#d32f2f"
         id="stop22" />
      <stop
         offset="1"
         stop-color="#d32f2f"
         id="stop24" />
    </radialGradient>
    <radialGradient
       cx="20000"
       cy="60000"
       r="2020"
       gradientUnits="userSpaceOnUse"
       id="color-6">
      <stop
         offset="1"
         stop-color="#d32f2f"
         id="stop27" />
      <stop
         offset="1"
         stop-color="#d32f2f"
         id="stop29" />
    </radialGradient>
  </defs>
  <g
     stroke-width="none"
     stroke-miterlimit="10"
     font-weight="none"
     font-size="none"
     text-anchor="none"
     style="font-family:none;mix-blend-mode:normal;fill:none;fill-rule:nonzero;stroke:none;stroke-linecap:butt;stroke-linejoin:miter;stroke-miterlimit:10;stroke-dasharray:none;stroke-dashoffset:0"
     id="g80"
     transform="matrix(-1,0,0,1,135929.33,-529.16664)">
    <path
       d="m 90400,45000 c 0,220.914 -179.086,400 -400,400 v 0 c -220.914,0 -400,-179.086 -400,-400 V 20000 c 0,-220.914 179.086,-400 400,-400 v 0 c 220.914,0 400,179.086 400,400 z"
       id="path34"
       inkscape:connector-curvature="0"
       style="fill:#d32f2f;stroke-width:0" />
    <path
       d="m 80000,45400 c -220.914,0 -400,-179.086 -400,-400 v 0 c 0,-220.914 179.086,-400 400,-400 h 10000 c 220.914,0 400,179.086 400,400 v 0 c 0,220.914 -179.086,400 -400,400 z"
       id="path36"
       inkscape:connector-curvature="0"
       style="fill:#d32f2f;stroke-width:0" />
    <path
       d="m 74600,50000 c 0,-220.914 179.086,-400 400,-400 v 0 c 220.914,0 400,179.086 400,400 v 10000 c 0,220.914 -179.086,400 -400,400 v 0 c -220.914,0 -400,-179.086 -400,-400 z"
       id="path38"
       inkscape:connector-curvature="0"
       style="fill:#d32f2f;stroke-width:0" />
    <path
       d="m 70400,35000 c 0,220.914 -179.086,400 -400,400 v 0 c -220.914,0 -400,-179.086 -400,-400 V 20000 c 0,-220.914 179.086,-400 400,-400 v 0 c 220.914,0 400,179.086 400,400 z"
       id="path40"
       inkscape:connector-curvature="0"
       style="fill:#d32f2f;stroke-width:0" />
    <path
       d="m 60000,35400 c -220.914,0 -400,-179.086 -400,-400 v 0 c 0,-220.914 179.086,-400 400,-400 h 10000 c 220.914,0 400,179.086 400,400 v 0 c 0,220.914 -179.086,400 -400,400 z"
       id="path42"
       inkscape:connector-curvature="0"
       style="fill:#d32f2f;stroke-width:0" />
    <path
       d="m 55000,19600 c 220.914,0 400,179.086 400,400 v 0 c 0,220.914 -179.086,400 -400,400 h -5000 c -220.914,0 -400,-179.086 -400,-400 v 0 c 0,-220.914 179.086,-400 400,-400 z"
       id="path44"
       inkscape:connector-curvature="0"
       style="fill:#d32f2f;stroke-width:0" />
    <path
       d="m 55400,30000 c 0,220.914 -179.086,400 -400,400 v 0 c -220.914,0 -400,-179.086 -400,-400 V 20000 c 0,-220.914 179.086,-400 400,-400 v 0 c 220.914,0 400,179.086 400,400 z"
       id="path46"
       inkscape:connector-curvature="0"
       style="fill:#d32f2f;stroke-width:0" />
    <path
       d="m 45000,39600 c 220.914,0 400,179.086 400,400 v 0 c 0,220.914 -179.086,400 -400,400 H 30000 c -220.914,0 -400,-179.086 -400,-400 v 0 c 0,-220.914 179.086,-400 400,-400 z"
       id="path48"
       inkscape:connector-curvature="0"
       style="fill:#d32f2f;stroke-width:0" />
    <path
       d="m 45400,50000 c 0,220.914 -179.086,400 -400,400 v 0 c -220.914,0 -400,-179.086 -400,-400 V 40000 c 0,-220.914 179.086,-400 400,-400 v 0 c 220.914,0 400,179.086 400,400 z"
       id="path50"
       inkscape:connector-curvature="0"
       style="fill:#d32f2f;stroke-width:0" />
    <path
       d="m 19600,55000 c 0,-220.914 179.086,-400 400,-400 v 0 c 220.914,0 400,179.086 400,400 v 5000 c 0,220.914 -179.086,400 -400,400 v 0 c -220.914,0 -400,-179.086 -400,-400 z"
       id="path52"
       inkscape:connector-curvature="0"
       style="fill:#d32f2f;stroke-width:0" />
    <path
       d="m 40000,54600 c 220.914,0 400,179.086 400,400 v 0 c 0,220.914 -179.086,400 -400,400 H 20000 c -220.914,0 -400,-179.086 -400,-400 v 0 c 0,-220.914 179.086,-400 400,-400 z"
       id="path54"
       inkscape:connector-curvature="0"
       style="fill:#d32f2f;stroke-width:0" />
    <path
       d="m 73800,50000 c 0,-662.742 537.258,-1200 1200,-1200 662.742,0 1200,537.258 1200,1200 0,662.742 -537.258,1200 -1200,1200 -662.742,0 -1200,-537.258 -1200,-1200 z"
       id="path56"
       inkscape:connector-curvature="0"
       style="fill:#d32f2f;stroke-width:1" />
    <path
       d="m 78800,45000 c 0,-662.742 537.258,-1200 1200,-1200 662.742,0 1200,537.258 1200,1200 0,662.742 -537.258,1200 -1200,1200 -662.742,0 -1200,-537.258 -1200,-1200 z"
       id="path58"
       inkscape:connector-curvature="0"
       style="fill:#d32f2f;stroke-width:1" />
    <path
       d="m 58800,35000 c 0,-662.742 537.258,-1200 1200,-1200 662.742,0 1200,537.258 1200,1200 0,662.742 -537.258,1200 -1200,1200 -662.742,0 -1200,-537.258 -1200,-1200 z"
       id="path60"
       inkscape:connector-curvature="0"
       style="fill:#d32f2f;stroke-width:1" />
    <path
       d="m 53800,30000 c 0,-662.742 537.258,-1200 1200,-1200 662.742,0 1200,537.258 1200,1200 0,662.742 -537.258,1200 -1200,1200 -662.742,0 -1200,-537.258 -1200,-1200 z"
       id="path62"
       inkscape:connector-curvature="0"
       style="fill:#d32f2f;stroke-width:1" />
    <path
       d="m 43800,50000 c 0,-662.742 537.258,-1200 1200,-1200 662.742,0 1200,537.258 1200,1200 0,662.742 -537.258,1200 -1200,1200 -662.742,0 -1200,-537.258 -1200,-1200 z"
       id="path64"
       inkscape:connector-curvature="0"
       style="fill:#d32f2f;stroke-width:1" />
    <path
       d="m 38800,55000 c 0,-662.742 537.258,-1200 1200,-1200 662.742,0 1200,537.258 1200,1200 0,662.742 -537.258,1200 -1200,1200 -662.742,0 -1200,-537.258 -1200,-1200 z"
       id="path66"
       inkscape:connector-curvature="0"
       style="fill:#d32f2f;stroke-width:1" />
  </g>
</svg>
