<?xml version="1.0" encoding="UTF-8" standalone="no"?>
<svg
   xmlns:dc="http://purl.org/dc/elements/1.1/"
   xmlns:cc="http://creativecommons.org/ns#"
   xmlns:rdf="http://www.w3.org/1999/02/22-rdf-syntax-ns#"
   xmlns:svg="http://www.w3.org/2000/svg"
   xmlns="http://www.w3.org/2000/svg"
   xmlns:sodipodi="http://sodipodi.sourceforge.net/DTD/sodipodi-0.dtd"
   xmlns:inkscape="http://www.inkscape.org/namespaces/inkscape"
   width="135mm"
   height="85mm"
   viewBox="0 0 135000 85000"
   version="1.1"
   id="svg117"
   sodipodi:docname="F_400_64.svg"
   inkscape:version="0.92.2 5c3e80d, 2017-08-06">
  <metadata
     id="metadata121">
    <rdf:RDF>
      <cc:Work
         rdf:about="">
        <dc:format>image/svg+xml</dc:format>
        <dc:type
           rdf:resource="http://purl.org/dc/dcmitype/StillImage" />
        <dc:title></dc:title>
      </cc:Work>
    </rdf:RDF>
  </metadata>
  <sodipodi:namedview
     pagecolor="#ffffff"
     bordercolor="#666666"
     borderopacity="1"
     objecttolerance="10"
     gridtolerance="10"
     guidetolerance="10"
     inkscape:pageopacity="0"
     inkscape:pageshadow="2"
     inkscape:window-width="1049"
     inkscape:window-height="744"
     id="namedview119"
     showgrid="false"
     inkscape:zoom="1.5"
     inkscape:cx="255.11811"
     inkscape:cy="160.62992"
     inkscape:window-x="0"
     inkscape:window-y="0"
     inkscape:window-maximized="0"
     inkscape:current-layer="g115" />
  <defs
     id="defs37">
    <radialGradient
       cx="40000"
       cy="70000"
       r="2020"
       gradientUnits="userSpaceOnUse"
       id="color-1">
      <stop
         offset="1"
         stop-color="#303f9f"
         id="stop2" />
      <stop
         offset="1"
         stop-color="#303f9f"
         id="stop4" />
    </radialGradient>
    <radialGradient
       cx="20000"
       cy="50000"
       r="2020"
       gradientUnits="userSpaceOnUse"
       id="color-2">
      <stop
         offset="1"
         stop-color="#303f9f"
         id="stop7" />
      <stop
         offset="1"
         stop-color="#303f9f"
         id="stop9" />
    </radialGradient>
    <radialGradient
       cx="100000"
       cy="50000"
       r="2020"
       gradientUnits="userSpaceOnUse"
       id="color-3">
      <stop
         offset="1"
         stop-color="#303f9f"
         id="stop12" />
      <stop
         offset="1"
         stop-color="#303f9f"
         id="stop14" />
    </radialGradient>
    <radialGradient
       cx="60000"
       cy="50000"
       r="2020"
       gradientUnits="userSpaceOnUse"
       id="color-4">
      <stop
         offset="1"
         stop-color="#303f9f"
         id="stop17" />
      <stop
         offset="1"
         stop-color="#303f9f"
         id="stop19" />
    </radialGradient>
    <radialGradient
       cx="80000"
       cy="30000"
       r="2020"
       gradientUnits="userSpaceOnUse"
       id="color-5">
      <stop
         offset="1"
         stop-color="#303f9f"
         id="stop22" />
      <stop
         offset="1"
         stop-color="#303f9f"
         id="stop24" />
    </radialGradient>
    <radialGradient
       cx="40000"
       cy="30000"
       r="2020"
       gradientUnits="userSpaceOnUse"
       id="color-6">
      <stop
         offset="1"
         stop-color="#303f9f"
         id="stop27" />
      <stop
         offset="1"
         stop-color="#303f9f"
         id="stop29" />
    </radialGradient>
    <radialGradient
       cx="60000"
       cy="10000"
       r="2020"
       gradientUnits="userSpaceOnUse"
       id="color-7">
      <stop
         offset="1"
         stop-color="#303f9f"
         id="stop32" />
      <stop
         offset="1"
         stop-color="#303f9f"
         id="stop34" />
    </radialGradient>
  </defs>
  <g
     fill="none"
     fill-rule="nonzero"
     stroke="none"
     stroke-width="none"
     stroke-linecap="butt"
     stroke-linejoin="miter"
     stroke-miterlimit="10"
     stroke-dasharray=""
     stroke-dashoffset="0"
     font-family="none"
     font-weight="none"
     font-size="none"
     text-anchor="none"
     style="mix-blend-mode: normal"
     id="g115">
    <path
       d="M76200,50000c0,559.15183 -382.43184,1028.98192 -900,1162.19475l0,-2324.38951c517.56816,133.21284 900,603.04293 900,1162.19475zM73800,50000c0,-559.15183 382.43184,-1028.98192 900,-1162.19475v2324.38951c-517.56816,-133.21284 -900,-603.04293 -900,-1162.19475z"
       fill="#303f9f"
       stroke="none"
       stroke-width="1"
       id="path87" />
    <path
       d="M80000,46200c-559.15183,0 -1028.98192,-382.43184 -1162.19475,-900l2324.38951,0c-133.21284,517.56816 -603.04293,900 -1162.19475,900zM80000,43800c559.15183,0 1028.98192,382.43184 1162.19475,900l-2324.38951,0c133.21284,-517.56816 603.04293,-900 1162.19475,-900z"
       fill="#303f9f"
       stroke="none"
       stroke-width="1"
       id="path89" />
    <path
       d="M60000,36200c-559.15183,0 -1028.98192,-382.43184 -1162.19475,-900l2324.38951,0c-133.21284,517.56816 -603.04293,900 -1162.19475,900zM60000,33800c559.15183,0 1028.98192,382.43184 1162.19475,900h-2324.38951c133.21284,-517.56816 603.04293,-900 1162.19475,-900z"
       fill="#303f9f"
       stroke="none"
       stroke-width="1"
       id="path91" />
    <path
       d="M56200,30000c0,559.15183 -382.43184,1028.98192 -900,1162.19475v-2324.38951c517.56816,133.21284 900,603.04293 900,1162.19475zM53800,30000c0,-559.15183 382.43184,-1028.98192 900,-1162.19475l0,2324.38951c-517.56816,-133.21284 -900,-603.04293 -900,-1162.19475z"
       fill="#303f9f"
       stroke="none"
       stroke-width="1"
       id="path93" />
    <path
       d="M46200,50000c0,559.15183 -382.43184,1028.98192 -900,1162.19475l0,-2324.38951c517.56816,133.21284 900,603.04293 900,1162.19475zM43800,50000c0,-559.15183 382.43184,-1028.98192 900,-1162.19475l0,2324.38951c-517.56816,-133.21284 -900,-603.04293 -900,-1162.19475z"
       fill="#303f9f"
       stroke="none"
       stroke-width="1"
       id="path95" />
    <path
       d="M40000,56200c-559.15183,0 -1028.98192,-382.43184 -1162.19475,-900l2324.38951,0c-133.21284,517.56816 -603.04293,900 -1162.19475,900zM40000,53800c559.15183,0 1028.98192,382.43184 1162.19475,900l-2324.38951,0c133.21284,-517.56816 603.04293,-900 1162.19475,-900z"
       fill="#303f9f"
       stroke="none"
       stroke-width="1"
       id="path97" />
    <path
       fill="none"
       stroke="#ff7606"
       stroke-width="200"
       id="path113" />
  </g>
</svg>
