<?xml version="1.0" encoding="UTF-8" standalone="no"?>
<svg
   xmlns:dc="http://purl.org/dc/elements/1.1/"
   xmlns:cc="http://creativecommons.org/ns#"
   xmlns:rdf="http://www.w3.org/1999/02/22-rdf-syntax-ns#"
   xmlns:svg="http://www.w3.org/2000/svg"
   xmlns="http://www.w3.org/2000/svg"
   xmlns:sodipodi="http://sodipodi.sourceforge.net/DTD/sodipodi-0.dtd"
   xmlns:inkscape="http://www.inkscape.org/namespaces/inkscape"
   width="135mm"
   height="85mm"
   viewBox="0 0 135000 85000"
   version="1.1"
   id="svg52"
   sodipodi:docname="F_100_100.svg"
   inkscape:version="0.92.2 5c3e80d, 2017-08-06">
  <metadata
     id="metadata58">
    <rdf:RDF>
      <cc:Work
         rdf:about="">
        <dc:format>image/svg+xml</dc:format>
        <dc:type
           rdf:resource="http://purl.org/dc/dcmitype/StillImage" />
        <dc:title></dc:title>
      </cc:Work>
    </rdf:RDF>
  </metadata>
  <defs
     id="defs56" />
  <sodipodi:namedview
     pagecolor="#ffffff"
     bordercolor="#666666"
     borderopacity="1"
     objecttolerance="10"
     gridtolerance="10"
     guidetolerance="10"
     inkscape:pageopacity="0"
     inkscape:pageshadow="2"
     inkscape:window-width="993"
     inkscape:window-height="668"
     id="namedview54"
     showgrid="false"
     inkscape:zoom="1.5"
     inkscape:cx="255.11811"
     inkscape:cy="160.62992"
     inkscape:window-x="0"
     inkscape:window-y="0"
     inkscape:window-maximized="0"
     inkscape:current-layer="g50" />
  <g
     fill="#303f9f"
     fill-rule="nonzero"
     stroke="none"
     stroke-width="none"
     stroke-linecap="butt"
     stroke-linejoin="miter"
     stroke-miterlimit="10"
     stroke-dasharray=""
     stroke-dashoffset="0"
     font-family="none"
     font-weight="none"
     font-size="none"
     text-anchor="none"
     style="mix-blend-mode: normal"
     id="g50">
    <path
       d="M63089.80256,50089.80256c-49.59659,49.59659 -130.00854,49.59659 -179.60512,0v0c-49.59659,-49.59659 -49.59659,-130.00854 0,-179.60512l17000,-17000c49.59659,-49.59659 130.00854,-49.59659 179.60512,0v0c49.59659,49.59659 49.59659,130.00854 0,179.60512z"
       stroke-width="0"
       id="path22" />
    <path
       d="M42910.19744,30089.80256c-49.59659,-49.59659 -49.59659,-130.00854 0,-179.60512v0c49.59659,-49.59659 130.00854,-49.59659 179.60512,0l17000,17000c49.59659,49.59659 49.59659,130.00854 0,179.60512v0c-49.59659,49.59659 -130.00854,49.59659 -179.60512,0z"
       stroke-width="0"
       id="path24" />
    <path
       d="M45910.19744,30089.80256c-49.59659,-49.59659 -49.59659,-130.00854 0,-179.60512v0c49.59659,-49.59659 130.00854,-49.59659 179.60512,0l14000,14000c49.59659,49.59659 49.59659,130.00854 0,179.60512v0c-49.59659,49.59659 -130.00854,49.59659 -179.60512,0z"
       stroke-width="0"
       id="path26" />
    <path
       d="M48910.19744,30089.80256c-49.59659,-49.59659 -49.59659,-130.00854 0,-179.60512v0c49.59659,-49.59659 130.00854,-49.59659 179.60512,0l11000,11000c49.59659,49.59659 49.59659,130.00854 0,179.60512v0c-49.59659,49.59659 -130.00854,49.59659 -179.60512,0z"
       stroke-width="0"
       id="path28" />
    <path
       d="M51910.19744,30089.80256c-49.59659,-49.59659 -49.59659,-130.00854 0,-179.60512v0c49.59659,-49.59659 130.00854,-49.59659 179.60512,0l8000,8000c49.59659,49.59659 49.59659,130.00854 0,179.60512v0c-49.59659,49.59659 -130.00854,49.59659 -179.60512,0z"
       stroke-width="0"
       id="path30" />
    <path
       d="M79910.19744,35910.19744c49.59659,-49.59659 130.00854,-49.59659 179.60512,0v0c49.59659,49.59659 49.59659,130.00854 0,179.60512l-14000,14000c-49.59659,49.59659 -130.00854,49.59659 -179.60512,0v0c-49.59659,-49.59659 -49.59659,-130.00854 0,-179.60512z"
       stroke-width="0"
       id="path32" />
    <path
       d="M79910.19744,38910.19744c49.59659,-49.59659 130.00854,-49.59659 179.60512,0v0c49.59659,49.59659 49.59659,130.00854 0,179.60512l-11000,11000c-49.59659,49.59659 -130.00854,49.59659 -179.60512,0v0c-49.59659,-49.59659 -49.59659,-130.00854 0,-179.60512z"
       stroke-width="0"
       id="path34" />
    <path
       d="M79910.19744,41910.19744c49.59659,-49.59659 130.00854,-49.59659 179.60512,0v0c49.59659,49.59659 49.59659,130.00854 0,179.60512l-8000,8000c-49.59659,49.59659 -130.00854,49.59659 -179.60512,0v0c-49.59659,-49.59659 -49.59659,-130.00854 0,-179.60512z"
       stroke-width="0"
       id="path36" />
    <path
       d="M40089.80256,67089.80256c-49.59659,49.59659 -130.00854,49.59659 -179.60512,0v0c-49.59659,-49.59659 -49.59659,-130.00854 0,-179.60512l17000,-17000c49.59659,-49.59659 130.00854,-49.59659 179.60512,0v0c49.59659,49.59659 49.59659,130.00854 0,179.60512z"
       stroke-width="0"
       id="path42" />
    <path
       d="M40089.80256,64089.80256c-49.59659,49.59659 -130.00854,49.59659 -179.60512,0v0c-49.59659,-49.59659 -49.59659,-130.00854 0,-179.60512l14000,-14000c49.59659,-49.59659 130.00854,-49.59659 179.60512,0v0c49.59659,49.59659 49.59659,130.00854 0,179.60512z"
       stroke-width="0"
       id="path44" />
    <path
       d="M40089.80256,58089.80256c-49.59659,49.59659 -130.00854,49.59659 -179.60512,0v0c-49.59659,-49.59659 -49.59659,-130.00854 0,-179.60512l8000,-8000c49.59659,-49.59659 130.00854,-49.59659 179.60512,0v0c49.59659,49.59659 49.59659,130.00854 0,179.60512z"
       stroke-width="0"
       id="path46" />
    <path
       d="M40089.80256,61089.80256c-49.59659,49.59659 -130.00854,49.59659 -179.60512,0v0c-49.59659,-49.59659 -49.59659,-130.00854 0,-179.60512l11000,-11000c49.59659,-49.59659 130.00854,-49.59659 179.60512,0v0c49.59659,49.59659 49.59659,130.00854 0,179.60512z"
       stroke-width="0"
       id="path48" />
  </g>
</svg>
