<?xml version="1.0" encoding="UTF-8" standalone="no"?>
<svg
   xmlns:dc="http://purl.org/dc/elements/1.1/"
   xmlns:cc="http://creativecommons.org/ns#"
   xmlns:rdf="http://www.w3.org/1999/02/22-rdf-syntax-ns#"
   xmlns:svg="http://www.w3.org/2000/svg"
   xmlns="http://www.w3.org/2000/svg"
   xmlns:sodipodi="http://sodipodi.sourceforge.net/DTD/sodipodi-0.dtd"
   xmlns:inkscape="http://www.inkscape.org/namespaces/inkscape"
   width="135mm"
   height="85mm"
   viewBox="0 0 135000 85000"
   version="1.1"
   id="svg44"
   sodipodi:docname="C_400_32.svg"
   inkscape:version="0.92.2 5c3e80d, 2017-08-06">
  <metadata
     id="metadata48">
    <rdf:RDF>
      <cc:Work
         rdf:about="">
        <dc:format>image/svg+xml</dc:format>
        <dc:type
           rdf:resource="http://purl.org/dc/dcmitype/StillImage" />
        <dc:title />
      </cc:Work>
    </rdf:RDF>
  </metadata>
  <sodipodi:namedview
     pagecolor="#ffffff"
     bordercolor="#666666"
     borderopacity="1"
     objecttolerance="10"
     gridtolerance="10"
     guidetolerance="10"
     inkscape:pageopacity="0"
     inkscape:pageshadow="2"
     inkscape:window-width="680"
     inkscape:window-height="709"
     id="namedview46"
     showgrid="false"
     inkscape:zoom="1.5"
     inkscape:cx="255.11811"
     inkscape:cy="160.62992"
     inkscape:window-x="23"
     inkscape:window-y="34"
     inkscape:window-maximized="0"
     inkscape:current-layer="g42" />
  <defs
     id="defs12">
    <radialGradient
       cx="80000"
       cy="20000"
       r="2020"
       gradientUnits="userSpaceOnUse"
       id="color-1">
      <stop
         offset="1"
         stop-color="#d32f2f"
         id="stop2" />
      <stop
         offset="1"
         stop-color="#d32f2f"
         id="stop4" />
    </radialGradient>
    <radialGradient
       cx="40000"
       cy="50000"
       r="2020"
       gradientUnits="userSpaceOnUse"
       id="color-2">
      <stop
         offset="1"
         stop-color="#d32f2f"
         id="stop7" />
      <stop
         offset="1"
         stop-color="#d32f2f"
         id="stop9" />
    </radialGradient>
  </defs>
  <g
     stroke-width="none"
     stroke-miterlimit="10"
     font-weight="none"
     font-size="none"
     text-anchor="none"
     style="font-family:none;mix-blend-mode:normal;fill:none;fill-rule:nonzero;stroke:none;stroke-linecap:butt;stroke-linejoin:miter;stroke-miterlimit:10;stroke-dasharray:none;stroke-dashoffset:0"
     id="g42"
     transform="matrix(1,0,0,-1,75.814253,80181.647)">
    <path
       d="m 70000,20400 c -220.914,0 -400,-179.086 -400,-400 v 0 c 0,-220.914 179.086,-400 400,-400 h 10000 c 220.914,0 400,179.086 400,400 v 0 c 0,220.914 -179.086,400 -400,400 z"
       id="path14"
       inkscape:connector-curvature="0"
       style="fill:#d32f2f;stroke-width:0" />
    <path
       d="m 70400,40000 c 0,220.914 -179.086,400 -400,400 v 0 c -220.914,0 -400,-179.086 -400,-400 V 20000 c 0,-220.914 179.086,-400 400,-400 v 0 c 220.914,0 400,179.086 400,400 z"
       id="path16"
       inkscape:connector-curvature="0"
       style="fill:#d32f2f;stroke-width:0" />
    <path
       d="m 72000,50400 v -800 0 z"
       id="path18"
       inkscape:connector-curvature="0"
       style="fill:#d32f2f;stroke-width:0" />
    <path
       d="m 71000,49400 v -800 0 z"
       id="path20"
       inkscape:connector-curvature="0"
       style="fill:#d32f2f;stroke-width:0" />
    <path
       d="m 70000,48400 v -800 0 z"
       id="path22"
       inkscape:connector-curvature="0"
       style="fill:#d32f2f;stroke-width:0" />
    <path
       d="m 70000,50400 v -800 0 z"
       id="path24"
       inkscape:connector-curvature="0"
       style="fill:#d32f2f;stroke-width:0" />
    <path
       d="m 70000,47400 v -800 0 z"
       id="path26"
       inkscape:connector-curvature="0"
       style="fill:#d32f2f;stroke-width:0" />
    <path
       d="m 70000,46400 v -800 0 z"
       id="path28"
       inkscape:connector-curvature="0"
       style="fill:#d32f2f;stroke-width:0" />
    <path
       d="m 71000,46400 v -800 0 z"
       id="path30"
       inkscape:connector-curvature="0"
       style="fill:#d32f2f;stroke-width:0" />
    <path
       d="m 40000,50400 c -220.914,0 -400,-179.086 -400,-400 v 0 c 0,-220.914 179.086,-400 400,-400 h 20000 c 220.914,0 400,179.086 400,400 v 0 c 0,220.914 -179.086,400 -400,400 z"
       id="path32"
       inkscape:connector-curvature="0"
       style="fill:#d32f2f;stroke-width:0" />
  </g>
</svg>
