<?xml version="1.0" encoding="UTF-8" standalone="no"?>
<svg
   xmlns:dc="http://purl.org/dc/elements/1.1/"
   xmlns:cc="http://creativecommons.org/ns#"
   xmlns:rdf="http://www.w3.org/1999/02/22-rdf-syntax-ns#"
   xmlns:svg="http://www.w3.org/2000/svg"
   xmlns="http://www.w3.org/2000/svg"
   xmlns:sodipodi="http://sodipodi.sourceforge.net/DTD/sodipodi-0.dtd"
   xmlns:inkscape="http://www.inkscape.org/namespaces/inkscape"
   width="135mm"
   height="85mm"
   viewBox="0 0 135000 85000"
   version="1.1"
   id="svg55"
   sodipodi:docname="F_1000_32.svg"
   inkscape:version="0.92.2 5c3e80d, 2017-08-06">
  <metadata
     id="metadata59">
    <rdf:RDF>
      <cc:Work
         rdf:about="">
        <dc:format>image/svg+xml</dc:format>
        <dc:type
           rdf:resource="http://purl.org/dc/dcmitype/StillImage" />
        <dc:title />
      </cc:Work>
    </rdf:RDF>
  </metadata>
  <sodipodi:namedview
     pagecolor="#ffffff"
     bordercolor="#666666"
     borderopacity="1"
     objecttolerance="10"
     gridtolerance="10"
     guidetolerance="10"
     inkscape:pageopacity="0"
     inkscape:pageshadow="2"
     inkscape:window-width="957"
     inkscape:window-height="707"
     id="namedview57"
     showgrid="false"
     inkscape:zoom="1.5"
     inkscape:cx="255.11811"
     inkscape:cy="160.62992"
     inkscape:window-x="0"
     inkscape:window-y="0"
     inkscape:window-maximized="0"
     inkscape:current-layer="g53" />
  <defs
     id="defs17">
    <radialGradient
       cx="60000"
       cy="70000"
       r="2020"
       gradientUnits="userSpaceOnUse"
       id="color-1">
      <stop
         offset="1"
         stop-color="#303f9f"
         id="stop2" />
      <stop
         offset="1"
         stop-color="#303f9f"
         id="stop4" />
    </radialGradient>
    <radialGradient
       cx="90000"
       cy="40000"
       r="2020"
       gradientUnits="userSpaceOnUse"
       id="color-2">
      <stop
         offset="1"
         stop-color="#303f9f"
         id="stop7" />
      <stop
         offset="1"
         stop-color="#303f9f"
         id="stop9" />
    </radialGradient>
    <radialGradient
       cx="60000"
       cy="10000"
       r="2020"
       gradientUnits="userSpaceOnUse"
       id="color-3">
      <stop
         offset="1"
         stop-color="#303f9f"
         id="stop12" />
      <stop
         offset="1"
         stop-color="#303f9f"
         id="stop14" />
    </radialGradient>
  </defs>
  <g
     fill="none"
     fill-rule="nonzero"
     stroke="none"
     stroke-width="none"
     stroke-linecap="butt"
     stroke-linejoin="miter"
     stroke-miterlimit="10"
     stroke-dasharray=""
     stroke-dashoffset="0"
     font-family="none"
     font-weight="none"
     font-size="none"
     text-anchor="none"
     style="mix-blend-mode: normal"
     id="g53">
    <path
       d="M59500,60000c0,-276.14237 223.85763,-500 500,-500v0c276.14237,0 500,223.85763 500,500v10000c0,276.14237 -223.85763,500 -500,500v0c-276.14237,0 -500,-223.85763 -500,-500z"
       fill="#303f9f"
       stroke="none"
       stroke-width="0"
       id="path19" />
    <path
       d="M60500,60000c0,276.14237 -223.85763,500 -500,500v0c-276.14237,0 -500,-223.85763 -500,-500v-9000c0,-276.14237 223.85763,-500 500,-500v0c276.14237,0 500,223.85763 500,500z"
       fill="#303f9f"
       stroke="none"
       stroke-width="0"
       id="path21" />
    <path
       d="M80000,40500c-276.14237,0 -500,-223.85763 -500,-500v0c0,-276.14237 223.85763,-500 500,-500h10000c276.14237,0 500,223.85763 500,500v0c0,276.14237 -223.85763,500 -500,500z"
       fill="#303f9f"
       stroke="none"
       stroke-width="0"
       id="path23" />
    <path
       d="M71000,40500c-276.14237,0 -500,-223.85763 -500,-500v0c0,-276.14237 223.85763,-500 500,-500h9000c276.14237,0 500,223.85763 500,500v0c0,276.14237 -223.85763,500 -500,500z"
       fill="#303f9f"
       stroke="none"
       stroke-width="0"
       id="path25" />
    <path
       d="M60000,40500c-276.14237,0 -500,-223.85763 -500,-500v0c0,-276.14237 223.85763,-500 500,-500h9000c276.14237,0 500,223.85763 500,500v0c0,276.14237 -223.85763,500 -500,500z"
       fill="#303f9f"
       stroke="none"
       stroke-width="0"
       id="path27" />
    <path
       d="M59500,10000c0,-276.14237 223.85763,-500 500,-500v0c276.14237,0 500,223.85763 500,500l0,39000c0,276.14237 -223.85763,500 -500,500v0c-276.14237,0 -500,-223.85763 -500,-500z"
       fill="#303f9f"
       stroke="none"
       stroke-width="0"
       id="path29" />
    <path
       d="M60000,25400v-800v0v800z"
       fill="#303f9f"
       stroke="none"
       stroke-width="0"
       id="path31" />
    <path
       fill="none"
       stroke="#ff7606"
       stroke-width="200"
       id="path33" />
  </g>
</svg>
