<?xml version="1.0" encoding="UTF-8" standalone="no"?>
<svg
   xmlns:dc="http://purl.org/dc/elements/1.1/"
   xmlns:cc="http://creativecommons.org/ns#"
   xmlns:rdf="http://www.w3.org/1999/02/22-rdf-syntax-ns#"
   xmlns:svg="http://www.w3.org/2000/svg"
   xmlns="http://www.w3.org/2000/svg"
   xmlns:sodipodi="http://sodipodi.sourceforge.net/DTD/sodipodi-0.dtd"
   xmlns:inkscape="http://www.inkscape.org/namespaces/inkscape"
   width="135mm"
   height="85mm"
   viewBox="0 0 135000 85000"
   version="1.1"
   id="svg50"
   sodipodi:docname="C_THRU_8.svg"
   inkscape:version="0.92.2 5c3e80d, 2017-08-06">
  <metadata
     id="metadata54">
    <rdf:RDF>
      <cc:Work
         rdf:about="">
        <dc:format>image/svg+xml</dc:format>
        <dc:type
           rdf:resource="http://purl.org/dc/dcmitype/StillImage" />
        <dc:title></dc:title>
      </cc:Work>
    </rdf:RDF>
  </metadata>
  <sodipodi:namedview
     pagecolor="#ffffff"
     bordercolor="#666666"
     borderopacity="1"
     objecttolerance="10"
     gridtolerance="10"
     guidetolerance="10"
     inkscape:pageopacity="0"
     inkscape:pageshadow="2"
     inkscape:window-width="640"
     inkscape:window-height="480"
     id="namedview52"
     showgrid="false"
     inkscape:zoom="0.635"
     inkscape:cx="255.11811"
     inkscape:cy="160.62992"
     inkscape:window-x="0"
     inkscape:window-y="0"
     inkscape:window-maximized="0"
     inkscape:current-layer="g48" />
  <defs
     id="defs22">
    <radialGradient
       cx="110000"
       cy="50000"
       r="2020"
       gradientUnits="userSpaceOnUse"
       id="color-1"
       gradientTransform="matrix(1,0,0,-1,0,120000)">
      <stop
         offset="1"
         stop-color="#d32f2f"
         id="stop2" />
      <stop
         offset="1"
         stop-color="#d32f2f"
         id="stop4" />
    </radialGradient>
    <radialGradient
       cx="90000"
       cy="70000"
       r="2020"
       gradientUnits="userSpaceOnUse"
       id="color-2"
       gradientTransform="matrix(1,0,0,-1,0,120000)">
      <stop
         offset="1"
         stop-color="#d32f2f"
         id="stop7" />
      <stop
         offset="1"
         stop-color="#d32f2f"
         id="stop9" />
    </radialGradient>
    <radialGradient
       cx="50000"
       cy="70000"
       r="2020"
       gradientUnits="userSpaceOnUse"
       id="color-3"
       gradientTransform="matrix(1,0,0,-1,0,120000)">
      <stop
         offset="1"
         stop-color="#d32f2f"
         id="stop12" />
      <stop
         offset="1"
         stop-color="#d32f2f"
         id="stop14" />
    </radialGradient>
    <radialGradient
       cx="30000"
       cy="50000"
       r="2020"
       gradientUnits="userSpaceOnUse"
       id="color-4"
       gradientTransform="matrix(1,0,0,-1,0,120000)">
      <stop
         offset="1"
         stop-color="#d32f2f"
         id="stop17" />
      <stop
         offset="1"
         stop-color="#d32f2f"
         id="stop19" />
    </radialGradient>
  </defs>
  <g
     fill="none"
     fill-rule="nonzero"
     stroke="none"
     stroke-width="none"
     stroke-linecap="butt"
     stroke-linejoin="miter"
     stroke-miterlimit="10"
     stroke-dasharray=""
     stroke-dashoffset="0"
     font-family="none"
     font-weight="none"
     font-size="none"
     text-anchor="none"
     style="mix-blend-mode: normal"
     id="g48">
    <path
       d="m 107980,70000 c 0,1115.615 904.38,2020 2020,2020 1115.62,0 2020,-904.385 2020,-2020 0,-1115.615 -904.38,-2020 -2020,-2020 -1115.62,0 -2020,904.385 -2020,2020 z"
       id="path40"
       style="fill:url(#color-1);stroke-width:1"
       inkscape:connector-curvature="0" />
    <path
       d="m 87980,50000 c 0,1115.615 904.385,2020 2020,2020 1115.615,0 2020,-904.385 2020,-2020 0,-1115.615 -904.385,-2020 -2020,-2020 -1115.615,0 -2020,904.385 -2020,2020 z"
       id="path42"
       style="fill:url(#color-2);stroke-width:1"
       inkscape:connector-curvature="0" />
    <path
       d="m 47980,50000 c 0,1115.615 904.385,2020 2020,2020 1115.615,0 2020,-904.385 2020,-2020 0,-1115.615 -904.385,-2020 -2020,-2020 -1115.615,0 -2020,904.385 -2020,2020 z"
       id="path44"
       style="fill:url(#color-3);stroke-width:1"
       inkscape:connector-curvature="0" />
    <path
       d="m 27980,70000 c 0,1115.615 904.385,2020 2020,2020 1115.615,0 2020,-904.385 2020,-2020 0,-1115.615 -904.385,-2020 -2020,-2020 -1115.615,0 -2020,904.385 -2020,2020 z"
       id="path46"
       style="fill:url(#color-4);stroke-width:1"
       inkscape:connector-curvature="0" />
  </g>
</svg>
