<?xml version="1.0" encoding="UTF-8" standalone="no"?>
<svg
   xmlns:dc="http://purl.org/dc/elements/1.1/"
   xmlns:cc="http://creativecommons.org/ns#"
   xmlns:rdf="http://www.w3.org/1999/02/22-rdf-syntax-ns#"
   xmlns:svg="http://www.w3.org/2000/svg"
   xmlns="http://www.w3.org/2000/svg"
   xmlns:sodipodi="http://sodipodi.sourceforge.net/DTD/sodipodi-0.dtd"
   xmlns:inkscape="http://www.inkscape.org/namespaces/inkscape"
   width="135mm"
   height="85mm"
   viewBox="0 0 135000 85000"
   version="1.1"
   id="svg83"
   sodipodi:docname="F_100_100.svg"
   inkscape:version="0.92.2 5c3e80d, 2017-08-06">
  <metadata
     id="metadata87">
    <rdf:RDF>
      <cc:Work
         rdf:about="">
        <dc:format>image/svg+xml</dc:format>
        <dc:type
           rdf:resource="http://purl.org/dc/dcmitype/StillImage" />
        <dc:title></dc:title>
      </cc:Work>
    </rdf:RDF>
  </metadata>
  <sodipodi:namedview
     pagecolor="#ffffff"
     bordercolor="#666666"
     borderopacity="1"
     objecttolerance="10"
     gridtolerance="10"
     guidetolerance="10"
     inkscape:pageopacity="0"
     inkscape:pageshadow="2"
     inkscape:window-width="973"
     inkscape:window-height="712"
     id="namedview85"
     showgrid="false"
     inkscape:zoom="1.5"
     inkscape:cx="277.03042"
     inkscape:cy="160.62992"
     inkscape:window-x="0"
     inkscape:window-y="0"
     inkscape:window-maximized="0"
     inkscape:current-layer="g81" />
  <defs
     id="defs27">
    <radialGradient
       cx="100000"
       cy="30000"
       r="2020"
       gradientUnits="userSpaceOnUse"
       id="color-1">
      <stop
         offset="1"
         stop-color="#303f9f"
         id="stop2" />
      <stop
         offset="1"
         stop-color="#303f9f"
         id="stop4" />
    </radialGradient>
    <radialGradient
       cx="40000"
       cy="30000"
       r="2020"
       gradientUnits="userSpaceOnUse"
       id="color-2">
      <stop
         offset="1"
         stop-color="#303f9f"
         id="stop7" />
      <stop
         offset="1"
         stop-color="#303f9f"
         id="stop9" />
    </radialGradient>
    <radialGradient
       cx="70000"
       cy="60000"
       r="2020"
       gradientUnits="userSpaceOnUse"
       id="color-3">
      <stop
         offset="1"
         stop-color="#303f9f"
         id="stop12" />
      <stop
         offset="1"
         stop-color="#303f9f"
         id="stop14" />
    </radialGradient>
    <radialGradient
       cx="20000"
       cy="60000"
       r="2020"
       gradientUnits="userSpaceOnUse"
       id="color-4">
      <stop
         offset="1"
         stop-color="#303f9f"
         id="stop17" />
      <stop
         offset="1"
         stop-color="#303f9f"
         id="stop19" />
    </radialGradient>
    <radialGradient
       cx="120000"
       cy="60000"
       r="2020"
       gradientUnits="userSpaceOnUse"
       id="color-5">
      <stop
         offset="1"
         stop-color="#303f9f"
         id="stop22" />
      <stop
         offset="1"
         stop-color="#303f9f"
         id="stop24" />
    </radialGradient>
  </defs>
  <g
     fill="none"
     fill-rule="nonzero"
     stroke="none"
     stroke-width="none"
     stroke-linecap="butt"
     stroke-linejoin="miter"
     stroke-miterlimit="10"
     stroke-dasharray=""
     stroke-dashoffset="0"
     font-family="none"
     font-weight="none"
     font-size="none"
     text-anchor="none"
     style="mix-blend-mode: normal"
     id="g81">
    <path
       d="M84089.80256,60089.80256c-49.59659,49.59659 -130.00854,49.59659 -179.60512,0v0c-49.59659,-49.59659 -49.59659,-130.00854 0,-179.60512l16000,-16000c49.59659,-49.59659 130.00854,-49.59659 179.60512,0v0c49.59659,49.59659 49.59659,130.00854 0,179.60512z"
       fill="#303f9f"
       stroke="none"
       stroke-width="0"
       id="path29" />
    <path
       d="M74089.80256,60089.80256c-49.59659,49.59659 -130.00854,49.59659 -179.60512,0v0c-49.59659,-49.59659 -49.59659,-130.00854 0,-179.60512l26000,-26000c49.59659,-49.59659 130.00854,-49.59659 179.60512,0v0c49.59659,49.59659 49.59659,130.00854 0,179.60512z"
       fill="#303f9f"
       stroke="none"
       stroke-width="0"
       id="path31" />
    <path
       d="M77089.80256,60089.80256c-49.59659,49.59659 -130.00854,49.59659 -179.60512,0v0c-49.59659,-49.59659 -49.59659,-130.00854 0,-179.60512l23000,-23000c49.59659,-49.59659 130.00854,-49.59659 179.60512,0v0c49.59659,49.59659 49.59659,130.00854 0,179.60512z"
       fill="#303f9f"
       stroke="none"
       stroke-width="0"
       id="path33" />
    <path
       d="M80089.80256,60089.80256c-49.59659,49.59659 -130.00854,49.59659 -179.60512,0v0c-49.59659,-49.59659 -49.59659,-130.00854 0,-179.60512l20000,-20000c49.59659,-49.59659 130.00854,-49.59659 179.60512,0v0c49.59659,49.59659 49.59659,130.00854 0,179.60512z"
       fill="#303f9f"
       stroke="none"
       stroke-width="0"
       id="path35" />
    <path
       d="M39910.19744,44089.80256c-49.59659,-49.59659 -49.59659,-130.00854 0,-179.60512v0c49.59659,-49.59659 130.00854,-49.59659 179.60512,0l16000,16000c49.59659,49.59659 49.59659,130.00854 0,179.60512v0c-49.59659,49.59659 -130.00854,49.59659 -179.60512,0z"
       fill="#303f9f"
       stroke="none"
       stroke-width="0"
       id="path37" />
    <path
       d="M39912.12802,37091.6925c-50.64037,-48.53036 -52.35088,-128.92411 -3.82052,-179.56448v0c48.53036,-50.64037 128.92411,-52.35088 179.56448,-3.82052l24000,23000c50.64037,48.53036 52.35088,128.92411 3.82052,179.56448v0c-48.53036,50.64037 -128.92411,52.35088 -179.56448,3.82052z"
       fill="#303f9f"
       stroke="none"
       stroke-width="0"
       id="path39" />
    <path
       d="M39910.19744,33089.80256c-49.59659,-49.59659 -49.59659,-130.00854 0,-179.60512v0c49.59659,-49.59659 130.00854,-49.59659 179.60512,0l27000,27000c49.59659,49.59659 49.59659,130.00854 0,179.60512v0c-49.59659,49.59659 -130.00854,49.59659 -179.60512,0z"
       fill="#303f9f"
       stroke="none"
       stroke-width="0"
       id="path41" />
    <path
       d="M39910.19744,40089.80256c-49.59659,-49.59659 -49.59659,-130.00854 0,-179.60512v0c49.59659,-49.59659 130.00854,-49.59659 179.60512,0l20000,20000c49.59659,49.59659 49.59659,130.00854 0,179.60512v0c-49.59659,49.59659 -130.00854,49.59659 -179.60512,0z"
       fill="#303f9f"
       stroke="none"
       stroke-width="0"
       id="path43" />
    <path
       fill="none"
       stroke="#ff7606"
       stroke-width="200"
       id="path69" />
  </g>
</svg>
