<?xml version="1.0" encoding="UTF-8" standalone="no"?>
<svg
   xmlns:dc="http://purl.org/dc/elements/1.1/"
   xmlns:cc="http://creativecommons.org/ns#"
   xmlns:rdf="http://www.w3.org/1999/02/22-rdf-syntax-ns#"
   xmlns:svg="http://www.w3.org/2000/svg"
   xmlns="http://www.w3.org/2000/svg"
   xmlns:sodipodi="http://sodipodi.sourceforge.net/DTD/sodipodi-0.dtd"
   xmlns:inkscape="http://www.inkscape.org/namespaces/inkscape"
   width="135mm"
   height="85mm"
   viewBox="0 0 135000 85000"
   version="1.1"
   id="svg83"
   sodipodi:docname="F_THRU_8.svg"
   inkscape:version="0.92.2 5c3e80d, 2017-08-06">
  <metadata
     id="metadata87">
    <rdf:RDF>
      <cc:Work
         rdf:about="">
        <dc:format>image/svg+xml</dc:format>
        <dc:type
           rdf:resource="http://purl.org/dc/dcmitype/StillImage" />
        <dc:title></dc:title>
      </cc:Work>
    </rdf:RDF>
  </metadata>
  <sodipodi:namedview
     pagecolor="#ffffff"
     bordercolor="#666666"
     borderopacity="1"
     objecttolerance="10"
     gridtolerance="10"
     guidetolerance="10"
     inkscape:pageopacity="0"
     inkscape:pageshadow="2"
     inkscape:window-width="980"
     inkscape:window-height="655"
     id="namedview85"
     showgrid="false"
     inkscape:zoom="1.5"
     inkscape:cx="255.11811"
     inkscape:cy="160.62992"
     inkscape:window-x="0"
     inkscape:window-y="0"
     inkscape:window-maximized="0"
     inkscape:current-layer="g81" />
  <defs
     id="defs27">
    <radialGradient
       cx="100000"
       cy="30000"
       r="2020"
       gradientUnits="userSpaceOnUse"
       id="color-1">
      <stop
         offset="1"
         stop-color="#303f9f"
         id="stop2" />
      <stop
         offset="1"
         stop-color="#303f9f"
         id="stop4" />
    </radialGradient>
    <radialGradient
       cx="40000"
       cy="30000"
       r="2020"
       gradientUnits="userSpaceOnUse"
       id="color-2">
      <stop
         offset="1"
         stop-color="#303f9f"
         id="stop7" />
      <stop
         offset="1"
         stop-color="#303f9f"
         id="stop9" />
    </radialGradient>
    <radialGradient
       cx="70000"
       cy="60000"
       r="2020"
       gradientUnits="userSpaceOnUse"
       id="color-3">
      <stop
         offset="1"
         stop-color="#303f9f"
         id="stop12" />
      <stop
         offset="1"
         stop-color="#303f9f"
         id="stop14" />
    </radialGradient>
    <radialGradient
       cx="20000"
       cy="60000"
       r="2020"
       gradientUnits="userSpaceOnUse"
       id="color-4">
      <stop
         offset="1"
         stop-color="#303f9f"
         id="stop17" />
      <stop
         offset="1"
         stop-color="#303f9f"
         id="stop19" />
    </radialGradient>
    <radialGradient
       cx="120000"
       cy="60000"
       r="2020"
       gradientUnits="userSpaceOnUse"
       id="color-5">
      <stop
         offset="1"
         stop-color="#303f9f"
         id="stop22" />
      <stop
         offset="1"
         stop-color="#303f9f"
         id="stop24" />
    </radialGradient>
  </defs>
  <g
     fill="none"
     fill-rule="nonzero"
     stroke="none"
     stroke-width="none"
     stroke-linecap="butt"
     stroke-linejoin="miter"
     stroke-miterlimit="10"
     stroke-dasharray=""
     stroke-dashoffset="0"
     font-family="none"
     font-weight="none"
     font-size="none"
     text-anchor="none"
     style="mix-blend-mode: normal"
     id="g81">
    <path
       d="M21000,60400c-220.9139,0 -400,-179.0861 -400,-400v0c0,-220.9139 179.0861,-400 400,-400v0c220.9139,0 400,179.0861 400,400v0c0,220.9139 -179.0861,400 -400,400zM21000,60400c-220.9139,0 -400,-179.0861 -400,-400v0c0,-220.9139 179.0861,-400 400,-400v0c220.9139,0 400,179.0861 400,400v0c0,220.9139 -179.0861,400 -400,400z"
       fill="#303f9f"
       stroke="none"
       stroke-width="1"
       id="path59" />
    <path
       fill="none"
       stroke="#ff7606"
       stroke-width="200"
       id="path69" />
    <path
       d="M97980,30000c0,-1115.61519 904.38481,-2020 2020,-2020c1115.61519,0 2020,904.38481 2020,2020c0,1115.61519 -904.38481,2020 -2020,2020c-1115.61519,0 -2020,-904.38481 -2020,-2020z"
       fill="url(#color-1)"
       stroke="none"
       stroke-width="1"
       id="path71" />
    <path
       d="M37980,30000c0,-1115.61519 904.38481,-2020 2020,-2020c1115.61519,0 2020,904.38481 2020,2020c0,1115.61519 -904.38481,2020 -2020,2020c-1115.61519,0 -2020,-904.38481 -2020,-2020z"
       fill="url(#color-2)"
       stroke="none"
       stroke-width="1"
       id="path73" />
    <path
       d="M67980,60000c0,-1115.61519 904.38481,-2020 2020,-2020c1115.61519,0 2020,904.38481 2020,2020c0,1115.61519 -904.38481,2020 -2020,2020c-1115.61519,0 -2020,-904.38481 -2020,-2020z"
       fill="url(#color-3)"
       stroke="none"
       stroke-width="1"
       id="path75" />
    <path
       d="M17980,60000c0,-1115.61519 904.38481,-2020 2020,-2020c1115.61519,0 2020,904.38481 2020,2020c0,1115.61519 -904.38481,2020 -2020,2020c-1115.61519,0 -2020,-904.38481 -2020,-2020z"
       fill="url(#color-4)"
       stroke="none"
       stroke-width="1"
       id="path77" />
    <path
       d="M117980,60000c0,-1115.61519 904.38481,-2020 2020,-2020c1115.61519,0 2020,904.38481 2020,2020c0,1115.61519 -904.38481,2020 -2020,2020c-1115.61519,0 -2020,-904.38481 -2020,-2020z"
       fill="url(#color-5)"
       stroke="none"
       stroke-width="1"
       id="path79" />
  </g>
</svg>
